# xmcd CD database file generated by OrangeCD 5.2
#
# Track frame offsets:
#	150
#	14029
#	32628
#	42036
#	58442
#	90382
#	101925
#	117088
#	129336
#	143254
#	156146
#	175024
#
# Disc length: 2592 seconds
#
# Revision: 4
# Processed by: cddbd v1.5.1PL0 Copyright (c) Steve Scherf et al.
# Submitted via: OrangeCD 5.2
#
DISCID=960a1e0c
DTITLE=Alan Jackson - Under The Influence
DYEAR=1999
DGENRE=Country
TTITLE0=Pop A Top
TTITLE1=Farewell Party
TTITLE2=Kiss An Angel Good Mornin'
TTITLE3=Right In The Palm Of Your Hand
TTITLE4=The Blues Man
TTITLE5=Revenooer Man
TTITLE6=My Own Kind Of Hat
TTITLE7=She Just Started Liking Cheatin' Songs
TTITLE8=The Way I Am
TTITLE9=It Must Be Love
TTITLE10=Once You've Had The Best
TTITLE11=Margaritaville
EXTD=
EXTT0=
EXTT1=
EXTT2=
EXTT3=
EXTT4=
EXTT5=
EXTT6=
EXTT7=
EXTT8=
EXTT9=
EXTT10=
EXTT11=
PLAYORDER=
